<svg xmlns="http://www.w3.org/2000/svg" width="244.11" height="193.956" viewBox="0 0 244.11 193.956">
  <path id="Path_3702" data-name="Path 3702" d="M137.642,208.081v-.944c-.164.009-.338.013-.494.026C137.316,207.466,137.478,207.774,137.642,208.081Zm-.494-2.673c0,.252.2.3.251.5l.243,0v-1l-.243,0C137.2,204.962,137.108,205.116,137.147,205.408ZM94.216,30.28c-1.018-4.576.365-9.528-1.947-12.808-11.084.089-17.983-2.682-27.565-4.456-2.03,5.054-.781,13.044-8.354,13.088C55.888,17.01,59.27-2.217,46.05.21c-10.684,1.961-6.264,19.733-6.405,31.184-.363,29.729.466,63.917.558,92.995-.983,1.606-2.781,1.747-3.341,3.341-1.166,3.322,1.766,5.873,3.062,8.354-.146,2.1-2.722,2.267-4.176,3.34-3.165,2.333-4.663,5.965-5.57,9.744-8.956.788-16.494,3-18.934,10.3-1.791-.1-2.86-1.061-4.174-1.114-9.022-.366-10.013,19.931.556,19.768a3.282,3.282,0,0,0,2.783-1.113C13.43,183.83,17.33,189.767,27.4,189.54c1.385,6.04,6.719,8.128,9.466,12.807-1.542,2.672.007,7.27,2.228,9.189,4.242,3.666,13.815.575,16.427-3.062a2.467,2.467,0,0,1,.835-2.505c-.6-.885-.6-2.373-1.391-3.064,5.641-2.627,11.972-6.944,12.806-14.2,6.815-1.539,10.368-6.339,14.2-10.858,2.17.772,3.645,1.279,5.29.834,7.146-1.933,7.127-22.553-3.9-18.934-3.608-5.674-8.651-9.911-16.7-11.136-1.84-2.961-2.6-6.49-5.011-8.632-1.553-1.38-5.111-2.318-5.291-4.175-.19-1.962,3-3.246,2.228-6.961-.4-1.9-1.906-2.033-3.34-3.9-.249-29.007-.008-57.354.833-82.417,7.562-1.017,7.329,7.171,7.8,13.088a204.386,204.386,0,0,1,28.957-3.064c.085-3.491.17-9.014.556-12.808-5.974-.684-14.272.719-20.324-2.226.041-1.714-1.1-2.246-1.673-3.343C75.892,26.182,85.573,31.312,94.216,30.28ZM6.79,166.711c.382,3.5.2,5.638,1.393,9.188-4,1.963-6.954-4.838-6.684-8.631.36-5.024,6.305-10.627,8.354-5.292C7.878,162.748,8.621,166.172,6.79,166.711ZM53.565,6.058c.112,1.038-.222,1.632-1.114,1.67-.391-1.388.074-1.915-.833-2.785C52.826,4.757,52.258,6.342,53.565,6.058Zm-2.227,127.8c.6-.217,1.558-.676,1.95-.277C53.613,134.718,51.352,134.694,51.338,133.854Zm0,1.673c-.394-.453-2.585.481-2.784-.838.924.09,1.715.043,1.949-.557C50.825,134.395,52.34,134.86,51.338,135.527Zm-4.176-5.015a28.228,28.228,0,0,0,6.4,0C52.892,132.469,48.152,131.819,47.162,130.512Zm5.847-55.4c.008,1.931.561,4.246-.278,5.566-.443-.205.064-1.364-.835-1.113.077.635-.067,1.048-.557,1.113V78.726c.528-.062.615.313,1.114.279C52.784,77.63,52.143,76.424,53.009,75.109Zm-.557-59.863c-.47-.807-.81-2.1,0-2.787C52.5,13.677,52.895,14.362,52.452,15.246Zm.557,47.887c.322.419.978,1.173,0,1.391C52.849,64.356,52.356,63.205,53.009,63.133Zm-.278,25.339c-.2.631.5,2.169-.556,1.948C52.776,89.613,51.667,88.818,52.731,88.472Zm-.556-1.113c.012-2.893,1.358-1.549,0,0Zm.556,5.008a1.645,1.645,0,0,1-.279,1.95C51.753,93.55,52.164,92.9,52.731,92.367Zm-.279-7.515c-.218-1.191-.51-2,.279-2.785A3.1,3.1,0,0,1,52.452,84.852Zm0,15.869c.215.191.725,1.658-.277,1.392.2-.761-.553-.56-.556-1.114A1.3,1.3,0,0,0,52.452,100.721Zm0,28.678c-1.514.13-1.468.167-2.784.28C49.8,128.617,52.061,128.773,52.452,129.4ZM52.175,49.49c-.346,1.2.89,2.25-.556,2.228C51.7,50.875,51.307,49.554,52.175,49.49ZM42.986,33.62c.216.063.548.009.556.279-.884.137.466,2.51-.834,2.229-.63-.9.246-1.845-.278-2.508ZM38.81,132.183c-1.477-5.065,2.158-5.06,5.011-6.123.879-.137.985.5,1.951.279-.2-.762.554-.563.557-1.115-1.264-.223-2.156-.816-3.9-.559-.587-19.987.957-43.828-.279-61.532,1.1-6.508-.275-12.391.835-18.655-.368-2-.991-6.326.278-7.793.078,2.986.012,6.984,0,10.023.354-.015.386-.354.835-.276-.253-4.777.771-9.477-.557-14.48q.911.073.838-.835c-.584-.782-1.048.046-1.394-.835,1.922-.656.789-3.083.834-4.454.207-5.967-.145-13.232,2.229-18.654.967-.426,2.324-.464,3.34-.835C50.5,7.986,51.7,9.347,50.781,11.9c-.243-.406-.222-1.078-1.114-.835.188,11.23-.37,23.2.278,33.97.372-.467-.1-1.773.836-1.673.175,1.429.188,2.9-.558,3.622-.254-.489-.095-1.389-.556-1.671.305,2.381-.385,4.223.278,6.4.542-.42-.486-1.172.558-1.392.7,1.17-.208,2.111-.835,1.949v1.114c.49-.245.46-1.237,1.114-.559.043,2.609-.591,4.348.279,6.128.974.218.876-1.6,1.391-.279-.054.873-1.624.231-1.948.835-.193,21.955.537,38.307-.558,57.913,0,.459.772.157.836.557-.354.388-1.365.12-1.392.834a1.81,1.81,0,0,1,1.392.279c.151,1.353-1.11,1.3-1.392,2.227.5.155,1.156.144,1.392.557-2.205.053-1.489,2.047-3.62,1.671.72,1.166-.754.861-.556,2.228a8.269,8.269,0,0,1,5.29,1.67c-2.309.176-4.2-.736-5.846.279,1.013,1.627-1.59,1.32-.836,2.505.447.92,1.042-.038,1.67.557-.095,1.2-1.259,1.341-1.113,2.785.351.855,1.5.911,2.225,1.391-1,.134-3.482,1.6-4.077.44.272.159,1.035-.355.737-1C42.068,134.311,40.591,133.094,38.81,132.183ZM50.224,50.047a3.263,3.263,0,0,1,.279-2.784C50.534,48.459,51.073,49.314,50.224,50.047ZM38.81,202.9c3.153.747,6.523,2.219,9.744,1.95,1.953-.164,4.213-1.971,5.848,0C54.051,213.307,35.288,212.961,38.81,202.9Zm48.725-27c.913-2.708,2.093-5.149,1.67-9.188C91.069,168.9,89.358,174.188,87.535,175.9Zm-2.228-14.48c1.8-.224,2.917.239,3.063,1.669-.179.567-1.3.185-1.392.837.582,3.948-.273,7.812-1.114,12.809-.061.216-.235.322-.556.279-.308-1.124-.885-.534-2.227-.835C83.421,170.545,82.341,164.532,85.308,161.419Zm-5.291,2.506c-.414-1.813-.806-3.647-1.114-5.568,1.753,1.5.944,5.554,2.5,7.24.231-2.74-1.256-5.237-.833-7.24,1.832,4.563,2.469,12.979-.279,16.985.014-1.848,1.834-5.773,1.112-8.354-.31,1.452-.176,3.351-1.112,4.176.058-2.663,1.141-5-.279-6.96.378,6.134-.522,10.987-2.784,14.478-.328-.043-.791.047-.835-.278,4.3-4.717,3.7-18.429-1.112-22C78.15,156.531,78.423,161.607,80.016,163.925ZM62.2,144.713c.355.224,1.152,2.264.557,1.671C62.64,145.914,61.443,145.133,62.2,144.713Zm-2.506-.834c.885.691,1.29,1.864,1.95,2.784C60.722,146.18,59.323,144.722,59.692,143.879Zm-1.114-.279c.073-.908-1.08-.591-1.114-1.395C58.4,141.947,59.331,143.1,58.578,143.6Zm-1.949-14.479c-.047.788.24,1.91-.558,1.948C55.948,130.369,55.446,129.162,56.629,129.122Zm-.278,11.971c-1.726.237-3.087-1.358-4.455-.556,2.543,1.263,4.1,3.51,6.4,5.013.714,2.071,1.169,4.4,3.062,5.289.739.09-.26-1.559.837-1.114.26,1.038.084,2.513,1.114,2.783,1.185-.891,3.169-2.042,4.454-.557a6.79,6.79,0,0,0-3.619,1.395c8.526,1.386,14.442,6.762,14.2,14.756-.132,4.347-2.3,7.706-4.176,11.693-2.433,2.058-5.7,1.842-8.908,2.783,3.2,2.644,8.571-.443,10.3-2.783-.386,2.28-5.653,6.017-8.631,3.9-1.812,2.246-.823,7.3-4.176,9.187,1.291-2.185,3.258-6.515,1.948-9.465-2.379,8.292-5.817,15.529-15.315,16.7,2.745,2.591,7.246-2.827,8.91-2.227-2.451,2.627-5.991,3.26-8.91,4.175,1.585-.359,4.1,0,5.849-.835-.679,2.386-5.456.672-7.242,1.948-1.406-.9-4.212-.5-5.567-.278a36.1,36.1,0,0,1-12.808-10.859c-.345-.9.9-.212.556-1.113-.376.089-.53.4-1.112.278-.032-2.152.545-1.085.556-3.341-1.2.034-1.025-.456-2.226-.834.049.605-.23.885-.837.834-9.348.282-12.165-6.593-15.315-12.25-1.515-9.783.366-17.263,6.127-21.162.526-.062.614.315,1.113.279,2.53-2.948,7.766-3.185,12.529-3.9,1.883-4.391,3.644-10.168,9.745-11.136a2.353,2.353,0,0,1,2.785-1.392,1.315,1.315,0,0,0-.278-.836A17.131,17.131,0,0,1,54.4,138.867c-.738.327-1.638-.534-1.671,0C53.2,140.343,55.626,139.87,56.351,141.093Zm-.835-10.858c.086.735-.582.719-1.114.835C54.191,130.092,55.129,129.825,55.515,130.235ZM65.54,16.638c3.549.215,5.479.484,7.794,1.669a69.674,69.674,0,0,1-7.794-.279C65.017,17.5,65.509,17.328,65.54,16.638ZM89.484,46.431c-.553.461-.355-.027-1.114,0A.6.6,0,1,1,89.484,46.431Zm-20.326-11.7c-.2.82-1.967.074-1.948,1.115,1.028.616,2.14-.348,2.5,1.113-2.147.256-3.652-.62-4.73,0-.05.7.426.87.835,1.114,2.707-1.057,6.355.6,5.566,3.062,1.035-.773,5.145.979,5.571,1.67-2.65.253-4.737-.691-9.19.557,4.157-.109,9.729.978,12.53-.835.061.529-.312.616-.279,1.113,1.064-1.025,5.491.616,5.57-.835.4,1.148,3.888-.229,3.9,1.392-5.267,2.061-9.707.338-15.035,1.4,4.382,1.388,8.712-.757,12.807,1.112-1.527.592-2.94.2-4.734.28-2.31.1-5.209-.145-6.959.834,3.7.538,7.006-.748,10.023.835.919-1.116,3.039-.325,3.619.557-6.71,1.07-14.888-.29-20.6,1.392,3.136.372,8.459-.09,13.365-.279,2.289-.088,4.735-.161,6.125,1.392C80.658,51,70.94,52.964,64.7,53.946c1.284-2.111-.212-6,0-7.794,3.844-.278,6.68.362,9.466-.557a28.023,28.023,0,0,0-9.745,0,9.084,9.084,0,0,0-8.075-6.127c-.112-4.243-.39-7.406-.279-10.858,4.608-1.623,7.908-2.847,8.633-8.354,5.217.475,9.78.91,13.642-.278-3.509-.429-8.432.206-13.363-.835,6.984-.077,15.584-.628,24.5,1.113-.063.525.314.613.278,1.114-.6,1.314-2.4-.163-2.226,1.668.382.737,2.1.133,1.948,1.393-5.683,1.721-13.409-1.219-22.274.56,6.362,1.508,16.335-.648,22.274,1.67-.035.77-.532.954.278.556.009,1.274-.977.013-1.67.278.087.376.4.532.279,1.115-2.349.648-4.871-.61-6.682-1.393.247.492,1.237.46.556,1.113-1.5-.33-1.347.112-2.784-.278-.31-.187.056-.925-.835-1.114-4.462.715-8.379-1.271-11.693.557,3.538.013,6.263.192,8.91.278.818.026,2.308-1.044,2.783.556a11.473,11.473,0,0,0-9.189,3.9v1.114a16.266,16.266,0,0,0-1.671.557C67.857,34.552,68.978,34.17,69.158,34.735Zm-3.34-.837c-.434.369.763.078,1.671.278C67.311,33.153,66.212,33.383,65.818,33.9ZM63.589,30c.823,1.444,3.764-.6,5.013.278C68.876,28.9,63.508,29.858,63.589,30ZM64.7,41.416a34.021,34.021,0,0,0,3.618-.278c-.949-1.024-2.546-.449-3.618-.835Zm-20.884,46.5c.919-.162.4-1.05.279-1.67C43.283,86.627,43.174,87.389,43.821,87.915Zm-.278-17.821c.77.119.262-1.038.838-1.112C43.843,68.024,43.241,69.3,43.542,70.094Zm0-1.948c.881-.051.755-1.1.838-1.948C43.661,66.407,43.41,67.086,43.542,68.146ZM44.1,80.674a27.927,27.927,0,0,0-.557,3.062h.838C44.063,82.623,44.629,81.869,44.1,80.674Zm-.557-7.518c.153.406-.325,1.442.278,1.392h.559C43.827,74.361,44.552,72.89,43.542,73.156Zm.557,19.49a3.226,3.226,0,0,0-.279,2.509c.22.469.565-1.273.837-1.674C44.063,93.612,44.126,93.084,44.1,92.646Zm.28,5.292c-1.12-.042-.738.713-.559,1.392C44.429,99.29,44.419,98.63,44.38,97.938Zm0,3.34c-1.58-.02.078,2-.28,2.785C44.951,103.273,43.718,102.051,44.38,101.278Zm0-39.536c-.952-1.784.866-4.867-1.115-5.289a28.532,28.532,0,0,1,0,6.4A2.51,2.51,0,0,0,44.38,61.742ZM52.175,205.69c-1.827.248-5.068-.306-5.846,1.949C48.335,207.047,51.888,208,52.175,205.69ZM66.1,43.086c.355.872.574.144,1.392.556C67.682,42.679,66.512,42.645,66.1,43.086ZM43.264,51.161c1.384-.241.889-2.386,1.115-3.062-.186-.835-.6.267-1.115,0C43.648,49.309,43.182,49.651,43.264,51.161Zm1.115.278c-1.111-.181-.8,1.06-.838,1.95C44.423,53.341,44.3,52.287,44.38,51.439Zm-2.787,96.616c-2.924,2.277-2.083,6.018-3.9,9.743,1.129,1.115,1.256,4.3-.556,4.734a9.875,9.875,0,0,1-4.178-3.061c-.93-.225-1.831.121-2.227-1.114-2.838,1.041-6.243-.433-8.909.557-.9.332-1.93,2.08-2.508,1.669-.631,2.7-4.181,5.217-4.174,8.633,0,2.562,1.558,4.425,2.226,6.961,1.554.821,3.678,3.326,5.847,4.175,1.153.449,3.58,1.348,4.177-.278-1.656-.788-3.948.073-5.013-1.671,4.227,1.235,11.594,2.77,15.314-.836-1.547,2.4-1.165,5.678-4.177,6.961.212,3.407,2.009,5.23,3.341,7.516a1.8,1.8,0,0,0,1.391-.278c.369,3.277,5.907,3.377,9.188,3.342.345-.585.77-1.085,1.114-1.671,6.453-.79,11.154-7.7,7.517-13.643.355-1.039,1.542-1.243,1.672-2.5,3.343,1.025,6.6,1.919,9.466.835.32-.122.308-.713.556-.835.845-.411,1.825-.043,2.506-.835,4.793-5.566,4.282-11.747-2.506-16.428-3.43-.329-7.225-.366-9.466.836a3.909,3.909,0,0,1-1.391-1.392c3.6-6.236-1.834-14.064-8.912-13.921A13.86,13.86,0,0,0,41.593,148.055ZM37.419,191.21c-.784-.8-2.117-2.516-1.672-3.618C36.314,188.606,37.753,190.218,37.419,191.21Zm-18.1-23.666c.092,2.186.195,5.479.558,8.075C19.219,173.562,17.375,170.24,19.319,167.545Zm24.5,25.057a11.841,11.841,0,0,1,2.508.836A1.762,1.762,0,0,1,43.821,192.6Zm11.139-41.763c1.4,2.064,1.154,6.574-.278,9.188a5.276,5.276,0,0,0,2.5,3.343c4.081-2.62,9.48-2.873,12.529,1.112,2.255,2.946,1.1,8.2-.833,10.86-3.561,2.336-8.994,1.579-12.251-.836-1.2,1.212-1.988,2.836-3.341,3.9,1.2,1.848,1.173,4.338,1.671,7.518-1.936,4.378-5.248,6.762-9.467,5.567-5.847-1.653-5.979-9.31-2.506-13.363-1.033-1.832-2.392-3.411-4.176-3.342-1.076.042-1.594,1.42-3.34,2.229-.7.323-1.61.106-1.951.278-.087.042.088.81,0,.835-2.175.61-3.272-.667-5.01.279-.434-.795-.768-.1-1.114-1.113-3.813-.125-5.979-3.988-6.128-7.519A8.33,8.33,0,0,1,32.129,161.7c2.178.671,3.43,3.439,5.845,4.177,1.532-1.439,3.2-2.737,4.176-4.735C34.753,152.354,50.1,143.674,54.959,150.838ZM64.7,27.217c-.685-1.137-2.333-.256-3.062-.279C62.227,27.974,63.285,26.91,64.7,27.217Zm15.033-4.735a15.835,15.835,0,0,0-8.631-.278c-1.333-.6-4.907-1.52-6.123.278C70.6,22.617,74.175,23.465,79.737,22.482Zm.279-.278c.985.739,1.9.438,3.064.278C82.317,21.726,81.407,22.054,80.016,22.2ZM52.452,207.359c-1.948.886-5.722.943-6.68,1.949C47.911,210.392,51.326,209.021,52.452,207.359ZM82.8,20.534c-.827-.914-2.227-.187-4.176-.556C78.947,20.887,81.05,20.387,82.8,20.534ZM67.209,47.542c2.9,1.024,5.025.061,8.076.557C74.076,46.329,68.508,47.593,67.209,47.542ZM85.028,175.62c.875-1.539,1.046-3.782,1.114-6.126C84.373,170.136,85.228,173.406,85.028,175.62Zm-1.114-1.115c.975-1.061.077-2.921.557-5.011C83.533,170.411,84.046,172.78,83.915,174.505Z" transform="translate(244.11 62.329) rotate(107)" fill="#9b794e" fill-rule="evenodd"/>
</svg>
