<svg xmlns="http://www.w3.org/2000/svg" width="112.887" height="104.141" viewBox="0 0 112.887 104.141">
  <path id="Path_10612" data-name="Path 10612" d="M355.251,2556.405c3.344,2.413,6.043-2.315,1.559-1.559.844-1.15-.375-2.389-.936-3.117.641.629.623-.13.936-.625-.829-.626-.3-2.613-1.559-2.805-.081.729-1.371.179-1.561,0a12,12,0,0,0-2.805,4.365C354.427,2551.6,354.713,2553.79,355.251,2556.405Zm3.117,15.9c1.181-1.21,1.209-3.574,1.871-5.3-2.5-.978-4.4,1.163-5.613,2.5.538.605,1.28,1.006.936,2.492-.4.432-1.354.31-2.181.313a27.935,27.935,0,0,0,6.547,9.665c3.13-.2,3.59-3.062,4.677-5.3-1.05-.437-1.156-2.3-.624-3.429C362.851,2571.6,359.172,2573.75,358.368,2572.308Zm.935,4.677c-1.742-.128-1.237-2.505-2.183-3.43.94.621,2.7.418,3.742.934A4.18,4.18,0,0,1,359.3,2576.985Zm6.237-40.224c-.738-1.548-2.518-2.054-4.989-1.871.943,2.137-.063,3.98-1.248,6.236.264.673,1.989-.116,2.184.624-.049.367.053.885-.312.936a30.062,30.062,0,0,0-3.743-.936c-.6,2.368,1.757,1.78,1.872,3.43-.689.822-2.076-.239-2.493.311.055,2.373,2.087,5.368,3.117,7.8,1.406.054,2.854.153,2.807-1.249-.222-1.024-1.774-.718-2.495-1.247,1.75.063.341-.522.312-1.247a20.617,20.617,0,0,1,2.805-.623c.517-1.844,1.293-4.131.624-6.237a4.384,4.384,0,0,0,3.118-.624c-1.19-1.486-.888-2.6-1.248-4.987.473-.476,2.57.212,2.806-1.25-.546-.491-1.659-.417-2.493-.622C365.625,2535.391,366.187,2536.682,365.54,2536.761Zm34.3-18.4c-.346,2.148-3.111,1.878-4.677,2.805-.473-.982.271-2.1.312-3.428m-14.655,1.56c-.826,1.721.3,5.037-.936,5.61-.212-.617-1.856.2-1.559-.934,1.68.5.631-3.327,1.871-4.054a28.741,28.741,0,0,0-3.118-.311c-1.231,4.468,1.355,7.215,2.5,10.288,2.094.561,4.323-1.667,3.118-3.117,2.5.085,3.152-1.815,3.74-2.806,1.933-.3,3.385.579,4.679,0,.751.39.712,1.571,1.868,1.558,1.91.144,2.138-1.394,3.118-2.182,1.025.637,3.158.168,4.677.312.294-2.2,1.9-3.085,2.184-5.3m-18.71-1.248c-1.616,1.977.421,5.21-1.246,6.549.531-1.6.028-2.271,0-3.742-.663-.307-1.391.095-2.184-.622m8.106-2.5c1.582,1.782.993,3.806,2.806,5.3-1.516-.1-3.509.975-4.364-.313,1.183-.709-.021-3.183,0-4.677m-20.268-.624c-2.745,2.374-4.714,6.511-7.484,9.666-1.111,1.267-2.826,1.936-3.741,3.117-.791,1.021-.809,2.544-1.56,3.742-.8,1.27-2.273,2.091-3.117,3.431-1.469,2.334-2.056,5.278-3.429,7.484-.46.737-1.466,1.106-1.872,1.87-1.673,3.157-2.684,8.021-4.054,11.849-.632,1.771-1.711,2.914-1.87,4.052-1.145,8.222,2.841,15.869,4.053,23.387,1.19,2.4,4.011,3.587,5.923,5.613,1.028,1.085,1.382,2.473,2.5,3.431,3.32,2.851,6.753,4.773,9.667,7.793,6.636.632,12.11,4.864,19.642,5.612,12.062,3.933,23.33,4.465,35.546,6.861,3.66-2.02,9.313-4.429,9.978-7.484.954.226.916-.538,1.871-.311.989-2.615,5.536-3.1,5.613-5.612a38.209,38.209,0,0,0,8.106-4.055c.992-3.477,4.385-4.552,5.613-7.794.59-.071.687.352,1.247.312-.854-8.28,3.72-13.255,2.805-24.01-2.881-.97-.957-4.277-.933-7.17.029-4.014-1.691-7.506-1.873-10.291-4.542-3.726-6.147-8.674-8.108-14.654-1.084-.684-2.122-1.411-2.183-3.118-1.993-.915-3.1-2.718-4.364-4.365-.988.428-1.043.067-2.184,0-.771-.365.758-1.294-.622-1.246-1.519-1.734-3.725-2.261-5.926-3.742a87.722,87.722,0,0,0-21.515-10.6m-35.856,8.729a15.976,15.976,0,0,1-3.742,3.429c-.2-.17,1.868-3.273,3.742-3.429m-11.539,75.456c-.658-.47-1.753-.279-2.18-.623-3.221-2.6-5.088-7.2-8.108-7.8-1.525-2.752-1.382-6.918-3.118-8.418-.777-.127-.02-1.209.624-.936-3.431-7.841-2.5-18.488,2.183-25.255-.5,7.167-2.633,17.915,0,25.255,2.135,2.087,1.956,4.9,3.43,7.171,1.263,1.95,3.16,2.563,4.989,4.054,2.631,2.148,4.527,5.637,7.794,6.548a3.648,3.648,0,0,0,1.247,2.494C361.008,2601.179,359.954,2596.25,357.431,2594.445Zm10.6,4.366c2.149-.173,5.415,1.234,7.483,2.184C373.244,2603.541,371.4,2599.265,368.034,2598.811Zm-.312-46.772c1.445-4.532,6.145-12.615,9.666-15.9,3.967-3.7,10.132-9.194,16.837-6.86-.778,2.572-1.863,7.474-4.053,9.666-.424-.616.148-2.226-1.248-1.868-.081-.915.706-.96.624-1.872-1.15-1.592-3.9-.154-4.053,1.248,0,1.247,1.46,1.033,1.872,1.871a6.734,6.734,0,0,1-.313,2.8c-.652.679-.889-.155-1.871,0-.674,1.864-.531,4.043-.936,5.614-.747.4-1.145,1.138-2.495.934a19.136,19.136,0,0,1-.935,2.806,2.03,2.03,0,0,0-1.56.312c-3.082,6.9-8.5,11.455-9.665,20.268a1.708,1.708,0,0,0-1.248,1.248c-.075-2.309-2.844-4.9-3.117-7.484-.308-2.9,1.663-7.532,2.495-10.914C367.858,2553.354,367.562,2552.54,367.722,2552.039Zm33.675-21.2c-.263-.67-1.368-.5-1.871-.937,4.193-.336,7.16,2.478,10.913,4.989,2.842,1.9,6.094,2.663,8.418,4.365,4.509,3.3,7.164,9.516,8.106,14.967a5.431,5.431,0,0,0-2.493,2.807c-2.918-2.467-4.445-5.363-6.237-8.106-2.458.035-2.2,2.783-3.741,3.741-.3-.842-1.077-1.21-1.247-2.184a17.725,17.725,0,0,0,1.559-4.989c-1.375-1.7-3.11-3.878-1.871-4.987a1.519,1.519,0,0,0-1.56-.624c-.218-3.04-6.932-4.629-9.352-1.559-3.777-1.054-4.673-5.511-5.614-7.8,1.94.324,2.5,1.955,4.677,1.247C401.059,2531.33,401.034,2530.889,401.4,2530.838Zm22.763,8.1c1-.742,3.489,1.459,1.87,2.5C425.5,2540.512,425.368,2539.189,424.16,2538.943Zm-3.12,19.958a4.359,4.359,0,0,0,3.43.311c.049.775-.489.966-.624,1.559-1.7-.487-3.654-.711-3.742-2.806.442.026.884.052.936-.311C422.5,2557.69,420.7,2558.106,421.04,2558.9Zm-15.59,39.6c-.674,1.046-1.431-.409-2.183-.313.46-.735.658-.58.313-1.559h1.87c-.009.3-.381.243-.624.311C404.967,2597.529,404.4,2598.82,405.45,2598.5Zm-3.428-7.174c.747-1.121,2.78-.961,4.676-.936C406.084,2591.649,403.829,2591.265,402.022,2591.326Zm-3.433-3.74c1.717,1.859-5.791.845-7.48,0-.015-.009.394-.6.31-.625-2.231-.585-4.538-.279-5.613-.623.506-1.684-.846-1.469-1.87-2.184-.3-.86,1.7-.951.935-1.247.534-1.1.628.783,1.248.624.252-.057.311-.314.622-.311-1.8-1.552,2.387,1.065,3.432-.935,4.561,6.358,10.113,2.409,15.278-.626.056-5.58,7.669-4.409,11.225-5.3-1.76.838-2.476,2.717-2.807,4.988A29.263,29.263,0,0,1,398.589,2587.586Zm-5.923,12.472a4.474,4.474,0,0,1,3.429.937c-1.139,1.219-3.909-2.123-4.053,0-.343-.7-1.273-1.756-.624-2.494-1.238,1.458-2.9-.331-5.3,0,1.512-1.506-.1-2.473-.624-4.055,1.135-.3.145,1.52,1.559.936.462-.137-.123-.4,0-.936.982-.151.707.958,1.871.624.6-.034-.366-1.043,0-1.871,4.023-.976,8.587-.651,12.784-.313-.6.755-2.123.58-2.181,1.872-1.388.243-1.872-.415-3.118-.312-.6,1.12-2.876,2.831-4.365,4.055C392,2599.275,392.533,2599.465,392.667,2600.058ZM385.5,2581.35c1.138-.328,3.3-.909,4.365-.314A6.44,6.44,0,0,1,385.5,2581.35Zm9.666-24.945c.574,1.394-1.847,4.273,0,6.861a7.088,7.088,0,0,1-3.43-1.561C391.942,2559.007,393.738,2557.892,395.161,2556.405Zm-2.807-6.86a2.765,2.765,0,0,1,2.807-.936C394.576,2549.039,393.51,2550.037,392.355,2549.545Zm4.053-2.493h1.247c.133.65-.213.824-.311,1.247C397.106,2547.807,396.354,2547.833,396.408,2547.052Zm2.182,0c1.275-.886,2.373.618,3.118,1.247C401.082,2548.7,398.748,2548.154,398.589,2547.052Zm-4.364-5.926a16.569,16.569,0,0,1,.312-5.3C397.5,2535.878,397.395,2541.472,394.225,2541.126Zm-16.837,62.049c-.594-.133-.783-.671-1.559-.623.033-.8,1.043-.618,1.87-.624C377.739,2602.488,377.32,2602.585,377.389,2603.175Zm10.289,2.807c-.711-1.657-3.649.386-4.053-1.869-3.038.674-2.139.469-4.366-1.56,4.009,1.689,14.144,3.7,20.268,3.741,1.056.006,2.226-.653,3.117-.312.315.122.179.927,0,.936.631-.039,1.3-1.571,2.183-.936-.707.228-.552,1.319-.935,1.871-4.63-2.611-10.349-.208-15.589-2.493C387.962,2605.437,388.089,2605.979,387.678,2605.982Zm16.214,3.43c.222-.259,1.816-1.178.311-1.247.97-2.743,4.9.043,7.8-.935C410.134,2609.17,406.228,2608.674,403.892,2609.412Zm24.01-15.277c-.625.941-2.319-.231-1.56,1.556-.928-.219-1.878-.715-1.248.626-3.154.274-4.234,2.626-6.236,4.052-4.882.925-10.261,2.709-14.342,3.429.023-.595,2.177-1.247,1.247-3.117a22.254,22.254,0,0,0,4.365-1.248c2.075,1.223,4.227,2.19,6.236.312-.049-.365-.568-.263-.934-.312.42-3.771-1.876-7.461-3.741-9.977,1.362-1.425,5.628-1.543,6.235-1.871a.849.849,0,0,0-.624-.934c.2-.531.718-.2.624.309a11.861,11.861,0,0,1,4.053-3.74c.138.439-.283,1.008,0,2.494-.915.157-.178.59-1.248.937a5.008,5.008,0,0,1,1.872,3.429h1.247c-.161.459-.461.784-.624,1.245.56.04.658-.381,1.248-.311-1.082,1.852,2.063,1.238,2.493.311.056.882-1.171.726-.311,1.559a2.194,2.194,0,0,0,.624-.934C428.17,2591.995,427.848,2593.251,427.9,2594.135Zm9.665-10.292a7.032,7.032,0,0,1-4.365,5.614c-.181.856-.775,1.3-.934,2.181-2.321-.239-1.351,2.809-4.054,2.184.05-.986.01-1.882-.625-2.184a1.529,1.529,0,0,0,1.56-1.871,10.133,10.133,0,0,0,2.495-.623,1.752,1.752,0,0,0-.312,1.246c1.162.041.862-2.409,2.182-1.246-.039-1-.687-1.392-.935-2.184.175-.9.487.48.935.312.079-1.01,1.339-2.251,1.249-3.43.5-.088.536.3.935.312,1.919-4.211,3.58-8.685,6.548-11.846C441.418,2576.885,440.331,2581.2,437.566,2583.843Zm-8.106-17.46c.85.752,1.394.195,3.117.312.154,1.609-1.979.931-2.183,2.183-.3-.641-1.007-.865-1.559-1.247C428.45,2566.621,429.845,2567.391,429.46,2566.383Zm13.718-5.613c-1.693-1.223-3.2.178-4.989-.311a8.191,8.191,0,0,0-6.859-4.054c-.356-1.973-1.25-6.574-.936-9.042-.264-.465-1-.451-1.559-.623,4.677-1.688,9.628.069,10.291-4.678A39.12,39.12,0,0,1,443.178,2560.77Zm-31.49-42.094c10.113,6,23.445,8.774,27.125,21.2-1.592-.073-2.282-1.045-3.428-1.559-.343-1.382.527-1.552.623-2.5-3.849-1.039-8.969-1.172-12.472.626,1.181-2.04,5.231-1.216,5.924-3.742-2.206-.255-5.652.09-4.678-2.808-2.672-1.669-5,1.378-8.418.937.61-1.994,4.831-2.265,3.741-4.054-1.855-.914-6.916-1.044-7.483,1.247,1.22.819,1.321-.786,2.808,0-1.2.44-.9,2.372-1.249,3.43,2.221,1.7,4.877,1.4,8.419,1.559a4.141,4.141,0,0,0-1.872,3.117c.059,1.471,1.678-.557,1.559.938-1.216-.033-2.279-.216-2.8-.938a12.537,12.537,0,0,1-3.12,0c-1.5-.266-1.617-1.916-3.741-1.559-.173-1.075-1.738-.756-1.559-2.183-1.157-.641-2.541-.66-3.741-1.246-1.1-.537-2.1-1.892-2.806-2.184-1.908-.784-4.992-.95-7.172-1.247a40.727,40.727,0,0,0-7.484-.623c-11.466.878-23.328,16.531-26.191,29.619-.534,2.441-1.529,5.791-1.247,8.421.429,4.037,4.882,8.147,4.988,13.1.039,1.754-1.209,2.969,0,4.989-2.291,1.489-2.664,5.6-2.183,9.353-2.122.447-5.882-3.215-7.484-4.677-.707-.646-.522-.557-.624-1.244-2.319-.073-2.4-2.381-4.677-2.5a64.111,64.111,0,0,0-5.3-12.784,1.459,1.459,0,0,0,.935.312c.059-2.921-.36-3.628-.311-6.859-.691-.384-.789.806-.936-.625-.052-1.314.479.007.936,0,1.025-1.53.165-2.7.624-4.052-.087-1.1-1.162.782-1.248-.312.31-1.476.4-.309.624-1.872.7.175-.378.488.311.937.475-7.442,5.76-16.983,9.977-24.323,7.418-12.9,22.815-25.5,43.342-19.642m17.151,2.806c6.507,3.534,14.8,8.309,19.018,14.029-.282,1.254-1.861-1.129-2.181-1.871-2.2.124-2.831-1.326-3.432-2.8a83.778,83.778,0,0,1-13.719-7.173c-.972-.618-2.081-.661-3.117-1.248" transform="translate(-339.767 -2510.26)" fill="#9b794e"/>
</svg>
